<svg width="140" height="61" viewBox="0 0 140 61" fill="none" xmlns="http://www.w3.org/2000/svg">
<path d="M8.76 32.48C6.86667 32.48 5.33333 32 4.16 31.04C3.01333 30.1067 2.17333 28.8933 1.64 27.4C1.13333 25.9067 0.88 24.3467 0.88 22.72C0.88 20.6133 1.2 18.4933 1.84 16.36C2.48 14.2267 3.34667 12.2 4.44 10.28C5.56 8.33333 6.82667 6.61333 8.24 5.12C9.65333 3.6 11.1333 2.41333 12.68 1.56C14.2533 0.679998 15.8 0.239998 17.32 0.239998C18.4133 0.239998 19.2933 0.506665 19.96 1.04C20.6533 1.54667 21 2.42667 21 3.68C21 4.45333 20.8667 5.33333 20.6 6.32C20.3333 7.28 19.9733 8.21333 19.52 9.12C19.0667 10 18.56 10.7333 18 11.32C17.4667 11.9067 16.92 12.2 16.36 12.2C16.1467 12.2 15.92 12.1333 15.68 12C15.4667 11.8667 15.28 11.6267 15.12 11.28C15.52 10.8267 15.96 10.2667 16.44 9.6C16.9467 8.90667 17.4267 8.18667 17.88 7.44C18.3333 6.66667 18.6933 5.92 18.96 5.2C19.2533 4.45333 19.4 3.8 19.4 3.24C19.4 2.70667 19.24 2.28 18.92 1.96C18.6267 1.61333 18.1333 1.44 17.44 1.44C16.2933 1.44 15.0933 1.90667 13.84 2.84C12.6133 3.77333 11.4133 5.02667 10.24 6.6C9.09333 8.14667 8.05333 9.88 7.12 11.8C6.18667 13.72 5.44 15.68 4.88 17.68C4.34667 19.68 4.08 21.5867 4.08 23.4C4.08 24.7067 4.26667 25.96 4.64 27.16C5.01333 28.3333 5.61333 29.28 6.44 30C7.29333 30.7467 8.38667 31.12 9.72 31.12C11.1333 31.12 12.5333 30.72 13.92 29.92C15.3333 29.12 16.6267 28.0667 17.8 26.76C18.9733 25.4533 19.9067 24.04 20.6 22.52L21.16 22.92C20.28 24.6533 19.2133 26.2533 17.96 27.72C16.7067 29.16 15.3067 30.3067 13.76 31.16C12.2133 32.04 10.5467 32.48 8.76 32.48ZM23.0856 30.2C21.939 30.2 21.1123 29.8 20.6056 29C20.1256 28.2267 19.8856 27.2533 19.8856 26.08C19.8856 24.8 20.1256 23.28 20.6056 21.52C21.0856 19.76 21.7123 17.9067 22.4856 15.96C23.2856 14.0133 24.1523 12.12 25.0856 10.28C26.019 8.41333 26.9523 6.72 27.8856 5.2C28.819 3.68 29.6723 2.46667 30.4456 1.56C31.2456 0.653332 31.8723 0.199999 32.3256 0.199999C32.619 0.199999 32.859 0.373332 33.0456 0.719999C33.2323 1.04 33.379 1.44 33.4856 1.92C33.5923 2.37333 33.6456 2.78667 33.6456 3.16C33.6456 3.88 33.459 4.82667 33.0856 6C32.739 7.14667 32.2323 8.44 31.5656 9.88C30.9256 11.2933 30.1523 12.7333 29.2456 14.2C28.3656 15.64 27.3923 17.0267 26.3256 18.36C25.2856 19.6933 24.179 20.84 23.0056 21.8C22.8456 22.52 22.7123 23.2267 22.6056 23.92C22.5256 24.5867 22.4856 25.2267 22.4856 25.84C22.4856 26.88 22.6323 27.6533 22.9256 28.16C23.219 28.6667 23.659 28.92 24.2456 28.92C24.9656 28.92 25.6723 28.6 26.3656 27.96C27.0856 27.32 27.7523 26.52 28.3656 25.56C29.0056 24.5733 29.5523 23.56 30.0056 22.52L30.6056 22.84C29.539 25.1067 28.379 26.9067 27.1256 28.24C25.8723 29.5467 24.5256 30.2 23.0856 30.2ZM23.3656 20.44C24.299 19.5067 25.2056 18.44 26.0856 17.24C26.9656 16.0133 27.779 14.7467 28.5256 13.44C29.299 12.1333 29.979 10.8667 30.5656 9.64C31.1523 8.41333 31.6056 7.32 31.9256 6.36C32.2456 5.37333 32.4056 4.61333 32.4056 4.08C32.4056 3.81333 32.3656 3.64 32.2856 3.56C32.2323 3.48 32.179 3.44 32.1256 3.44C31.9123 3.44 31.539 3.78666 31.0056 4.48C30.499 5.14667 29.899 6.05333 29.2056 7.2C28.5123 8.34667 27.8056 9.65333 27.0856 11.12C26.3656 12.5867 25.6723 14.12 25.0056 15.72C24.3656 17.32 23.819 18.8933 23.3656 20.44ZM31.9788 30.28C30.8321 30.28 30.0188 29.92 29.5388 29.2C29.0587 28.5067 28.8187 27.6533 28.8187 26.64C28.8187 25.8133 28.9521 24.96 29.2188 24.08C29.4854 23.2 29.8321 22.3733 30.2588 21.6C30.7121 20.8267 31.2054 20.2 31.7388 19.72C32.2988 19.24 32.8588 19 33.4188 19C33.5521 19 33.6854 19.0267 33.8188 19.08C33.9788 19.1067 34.1254 19.1467 34.2588 19.2C34.0188 19.4133 33.7254 19.8133 33.3788 20.4C33.0588 20.96 32.7521 21.6133 32.4588 22.36C32.1654 23.08 31.9121 23.8 31.6988 24.52C31.5121 25.24 31.4188 25.8533 31.4188 26.36C31.4188 27.16 31.5521 27.7467 31.8188 28.12C32.0854 28.4667 32.4321 28.64 32.8588 28.64C33.4188 28.64 34.0854 28.3467 34.8588 27.76C35.6321 27.1467 36.3921 26.3733 37.1388 25.44C36.3921 24.8267 35.8054 24.0267 35.3788 23.04C34.9788 22.0267 34.7788 21 34.7788 19.96C34.7788 19.08 34.9254 18.2533 35.2188 17.48C35.5388 16.7067 35.9921 16.0933 36.5788 15.64C37.1654 15.16 37.8721 14.92 38.6988 14.92C39.7921 14.92 40.5254 15.2133 40.8988 15.8C41.2721 16.3867 41.4588 17.12 41.4588 18C41.4588 19.04 41.2054 20.2 40.6988 21.48C40.1921 22.7333 39.5521 23.9467 38.7788 25.12C39.2588 25.3867 39.7654 25.52 40.2988 25.52C40.7254 25.52 41.2054 25.44 41.7388 25.28C42.2721 25.0933 42.7921 24.7867 43.2988 24.36C43.8321 23.9333 44.2588 23.36 44.5788 22.64L45.0588 23.04C44.5254 24.2933 43.7654 25.1867 42.7788 25.72C41.8188 26.2267 40.8988 26.48 40.0188 26.48C39.6721 26.48 39.3388 26.4533 39.0188 26.4C38.6988 26.32 38.3921 26.2133 38.0988 26.08C37.1921 27.28 36.1921 28.28 35.0987 29.08C34.0321 29.88 32.9921 30.28 31.9788 30.28ZM37.8588 24.4C38.5254 23.4133 39.0721 22.3867 39.4987 21.32C39.9521 20.2267 40.1788 19.2 40.1788 18.24C40.1788 17.4667 40.0588 16.9067 39.8188 16.56C39.6054 16.1867 39.3254 16 38.9788 16C38.4454 16 37.8988 16.3867 37.3388 17.16C36.7788 17.9333 36.4988 18.9067 36.4988 20.08C36.4988 20.8533 36.6054 21.64 36.8188 22.44C37.0588 23.2133 37.4054 23.8667 37.8588 24.4ZM48.0281 31.04C46.7748 31.04 45.7748 30.76 45.0281 30.2C44.3081 29.6667 43.8015 29 43.5081 28.2C43.1881 27.4 43.0281 26.6 43.0281 25.8C43.0281 25 43.1348 24.3867 43.3481 23.96C43.5615 23.5333 43.8148 23.2133 44.1081 23C44.4281 22.7867 44.7215 22.6267 44.9881 22.52C45.2815 22.4133 45.4815 22.3067 45.5881 22.2C46.3881 21.32 47.1215 20.4 47.7881 19.44C48.4548 18.48 49.0415 17.4667 49.5481 16.4V15.92C49.5481 14.9333 49.7081 14.24 50.0281 13.84C50.3748 13.4133 50.7348 13.2 51.1081 13.2C51.3215 13.2 51.4815 13.2533 51.5881 13.36C51.6948 13.4667 51.7481 13.5867 51.7481 13.72C51.7481 13.8533 51.7081 14.0667 51.6281 14.36C51.5481 14.6533 51.5081 15.0267 51.5081 15.48C51.5081 16.36 51.6815 17.32 52.0281 18.36C52.3748 19.3733 52.7215 20.4533 53.0681 21.6C53.4148 22.72 53.5881 23.8933 53.5881 25.12C53.5881 25.4667 53.5615 25.8133 53.5081 26.16C53.4815 26.48 53.4281 26.7867 53.3481 27.08C54.2815 26.92 55.1615 26.5067 55.9881 25.84C56.8148 25.1467 57.6148 24.0533 58.3881 22.56L58.7481 22.96C58.2415 24.4267 57.4815 25.5467 56.4681 26.32C55.4548 27.0667 54.3481 27.5333 53.1481 27.72C52.7215 28.8667 52.0415 29.7067 51.1081 30.24C50.2015 30.7733 49.1748 31.04 48.0281 31.04ZM48.1081 29.64C48.4281 29.64 48.8548 29.5333 49.3881 29.32C49.9215 29.1067 50.3348 28.56 50.6281 27.68C49.5081 27.4667 48.5081 27.0267 47.6281 26.36C46.7748 25.6933 46.1348 25.0267 45.7081 24.36C45.1215 24.3867 44.8281 24.8533 44.8281 25.76C44.8281 26.72 45.1081 27.6133 45.6681 28.44C46.2548 29.24 47.0681 29.64 48.1081 29.64ZM50.8281 27.04C50.8815 26.7733 50.9215 26.4933 50.9481 26.2C50.9748 25.9067 50.9881 25.56 50.9881 25.16C50.9881 23.9067 50.8281 22.6667 50.5081 21.44C50.2148 20.1867 49.9615 19.0133 49.7481 17.92C49.1348 18.9333 48.4815 19.9067 47.7881 20.84C47.1215 21.7467 46.4815 22.5067 45.8681 23.12C46.2681 23.9733 46.8815 24.7733 47.7081 25.52C48.5615 26.2667 49.6015 26.7733 50.8281 27.04ZM61.9372 30.76C60.3105 30.76 59.0839 30.3067 58.2572 29.4C57.4572 28.52 57.0572 27.4267 57.0572 26.12C57.0572 24.92 57.3505 23.6533 57.9372 22.32C58.5505 20.9867 59.3505 19.7333 60.3372 18.56C61.3505 17.3867 62.4572 16.44 63.6572 15.72C64.8572 14.9733 66.0439 14.6 67.2172 14.6C67.8305 14.6 68.3905 14.76 68.8972 15.08C69.4305 15.4 69.6972 16.0533 69.6972 17.04C69.6972 18.0533 69.3905 19.0133 68.7772 19.92C68.1905 20.8 67.4039 21.5867 66.4172 22.28C65.4572 22.9733 64.3905 23.5467 63.2172 24C62.0705 24.4267 60.9239 24.6933 59.7772 24.8C59.7239 25.0667 59.6839 25.32 59.6572 25.56C59.6305 25.8 59.6172 26.0267 59.6172 26.24C59.6172 26.64 59.6572 27.04 59.7372 27.44C59.8439 27.84 60.0172 28.2133 60.2572 28.56C60.4972 28.88 60.8172 29.1333 61.2172 29.32C61.6439 29.5067 62.1639 29.6 62.7772 29.6C63.9239 29.6 65.0572 29.28 66.1772 28.64C67.2972 27.9733 68.3372 27.1067 69.2972 26.04C70.2572 24.9733 71.0705 23.8 71.7372 22.52L72.2172 22.88C71.4972 24.48 70.5772 25.8667 69.4572 27.04C68.3639 28.2133 67.1639 29.12 65.8572 29.76C64.5772 30.4267 63.2705 30.76 61.9372 30.76ZM59.9772 24.04C60.6972 23.8 61.5105 23.4533 62.4172 23C63.3239 22.52 64.1905 21.96 65.0172 21.32C65.8705 20.68 66.5639 19.9733 67.0972 19.2C67.6572 18.4267 67.9372 17.6133 67.9372 16.76C67.9372 16.4667 67.8839 16.24 67.7772 16.08C67.6705 15.92 67.4439 15.84 67.0972 15.84C66.4572 15.84 65.7772 16.0933 65.0572 16.6C64.3372 17.08 63.6439 17.72 62.9772 18.52C62.3105 19.32 61.7105 20.2 61.1772 21.16C60.6439 22.12 60.2439 23.08 59.9772 24.04ZM74.3375 30.84C73.1908 30.84 72.3108 30.5067 71.6975 29.84C71.0842 29.1733 70.7775 28.1867 70.7775 26.88C70.7775 25.7067 70.9908 24.2667 71.4175 22.56C71.8708 20.8267 72.4308 19.0533 73.0975 17.24C72.8308 17.1867 72.5775 17.1467 72.3375 17.12C72.0975 17.0667 71.8708 17 71.6575 16.92V16.2C71.8708 16.2267 72.1242 16.2533 72.4175 16.28C72.7108 16.3067 73.0442 16.3333 73.4175 16.36C73.9775 14.92 74.5775 13.5333 75.2175 12.2C75.8575 10.84 76.4842 9.64 77.0975 8.6C77.7375 7.53333 78.3375 6.69333 78.8975 6.08C79.4842 5.44 79.9775 5.12 80.3775 5.12C80.5908 5.12 80.7775 5.2 80.9375 5.36C81.1242 5.49333 81.2175 5.70667 81.2175 6C81.2175 6.45333 80.9375 7.2 80.3775 8.24C79.8175 9.25333 79.1242 10.4667 78.2975 11.88C77.4708 13.2933 76.6708 14.8267 75.8975 16.48C76.1375 16.48 76.3775 16.48 76.6175 16.48C76.8842 16.48 77.1375 16.48 77.3775 16.48C78.2575 16.48 79.1775 16.4667 80.1375 16.44C81.1242 16.4133 82.1108 16.3467 83.0975 16.24V16.96C81.6308 17.12 80.3108 17.24 79.1375 17.32C77.9908 17.4 76.9642 17.44 76.0575 17.44C75.9508 17.44 75.8442 17.44 75.7375 17.44C75.6575 17.44 75.5642 17.44 75.4575 17.44C74.8442 18.8533 74.3242 20.3067 73.8975 21.8C73.4708 23.2933 73.2575 24.7467 73.2575 26.16C73.2575 27.3067 73.4308 28.1333 73.7775 28.64C74.1242 29.12 74.6975 29.36 75.4975 29.36C76.8842 29.36 78.2442 28.7467 79.5775 27.52C80.9108 26.2933 82.0842 24.6267 83.0975 22.52L83.6175 22.92C82.9775 24.4133 82.1642 25.76 81.1775 26.96C80.2175 28.16 79.1508 29.1067 77.9775 29.8C76.8042 30.4933 75.5908 30.84 74.3375 30.84ZM70.4638 60.48C69.0238 60.48 67.6638 60.2133 66.3838 59.68C65.1038 59.1733 64.0638 58.3867 63.2638 57.32C62.4904 56.2533 62.1037 54.92 62.1037 53.32C62.1037 51.9333 62.3704 50.8533 62.9038 50.08C63.4638 49.3067 64.1438 48.76 64.9438 48.44C65.7438 48.12 66.5038 47.96 67.2238 47.96C66.5038 48.7333 65.9571 49.5867 65.5838 50.52C65.2104 51.4533 65.0238 52.3867 65.0238 53.32C65.0238 54.3067 65.2371 55.2267 65.6638 56.08C66.1171 56.9333 66.7971 57.6133 67.7038 58.12C68.6104 58.6533 69.7571 58.92 71.1438 58.92C72.3438 58.92 73.5171 58.6933 74.6638 58.24C75.8104 57.8133 76.7438 57.1733 77.4638 56.32C78.2104 55.44 78.5838 54.36 78.5838 53.08C78.5838 51.9333 78.2904 50.9467 77.7038 50.12C77.1171 49.2933 76.3571 48.56 75.4238 47.92C74.5171 47.28 73.5438 46.6667 72.5038 46.08C71.4638 45.4933 70.4771 44.88 69.5438 44.24C68.6371 43.5733 67.8904 42.8133 67.3038 41.96C66.7171 41.1067 66.4238 40.08 66.4238 38.88C66.4238 37.76 66.6904 36.5867 67.2238 35.36C67.7571 34.1333 68.5171 32.9733 69.5038 31.88C70.5171 30.7867 71.7171 29.9067 73.1038 29.24C74.5171 28.5467 76.0904 28.2 77.8238 28.2C79.3971 28.2 80.4904 28.5867 81.1038 29.36C81.7171 30.1067 82.0238 31.0533 82.0238 32.2C82.0238 33.16 81.8504 34.2 81.5038 35.32C81.1838 36.4133 80.7838 37.4667 80.3038 38.48C79.8238 39.4667 79.3704 40.3067 78.9438 41C78.4638 40.8933 78.1171 40.6933 77.9038 40.4C77.7171 40.08 77.6238 39.7067 77.6238 39.28C77.6238 38.72 77.7438 38.08 77.9838 37.36C78.2238 36.64 78.4904 35.8933 78.7838 35.12C79.1038 34.3467 79.3838 33.6 79.6238 32.88C79.8638 32.1333 79.9838 31.4667 79.9838 30.88C79.9838 30.3467 79.8238 29.9333 79.5038 29.64C79.1838 29.32 78.5971 29.16 77.7438 29.16C76.4904 29.16 75.3304 29.4533 74.2638 30.04C73.1971 30.6267 72.2638 31.3867 71.4638 32.32C70.6638 33.2267 70.0371 34.1867 69.5838 35.2C69.1571 36.2133 68.9438 37.1333 68.9438 37.96C68.9438 38.9467 69.2238 39.8 69.7838 40.52C70.3704 41.2133 71.1171 41.8533 72.0238 42.44C72.9304 43 73.8904 43.5733 74.9038 44.16C75.9438 44.72 76.9171 45.3467 77.8238 46.04C78.7304 46.7333 79.4638 47.56 80.0238 48.52C80.6104 49.4533 80.9038 50.6 80.9038 51.96C80.9038 53.3467 80.5971 54.5733 79.9838 55.64C79.3704 56.68 78.5438 57.56 77.5038 58.28C76.4904 59 75.3704 59.5467 74.1438 59.92C72.9171 60.2933 71.6904 60.48 70.4638 60.48ZM87.1891 58.84C86.0424 58.84 85.1624 58.5067 84.5491 57.84C83.9357 57.1733 83.6291 56.1867 83.6291 54.88C83.6291 53.7067 83.8424 52.2667 84.2691 50.56C84.7224 48.8267 85.2824 47.0533 85.9491 45.24C85.6824 45.1867 85.4291 45.1467 85.1891 45.12C84.9491 45.0667 84.7224 45 84.5091 44.92V44.2C84.7224 44.2267 84.9757 44.2533 85.2691 44.28C85.5624 44.3067 85.8957 44.3333 86.2691 44.36C86.8291 42.92 87.4291 41.5333 88.0691 40.2C88.7091 38.84 89.3357 37.64 89.9491 36.6C90.5891 35.5333 91.1891 34.6933 91.7491 34.08C92.3357 33.44 92.8291 33.12 93.2291 33.12C93.4424 33.12 93.6291 33.2 93.7891 33.36C93.9757 33.4933 94.0691 33.7067 94.0691 34C94.0691 34.4533 93.7891 35.2 93.2291 36.24C92.6691 37.2533 91.9757 38.4667 91.1491 39.88C90.3224 41.2933 89.5224 42.8267 88.7491 44.48C88.9891 44.48 89.2291 44.48 89.4691 44.48C89.7357 44.48 89.9891 44.48 90.2291 44.48C91.1091 44.48 92.0291 44.4667 92.9891 44.44C93.9757 44.4133 94.9624 44.3467 95.9491 44.24V44.96C94.4824 45.12 93.1624 45.24 91.9891 45.32C90.8424 45.4 89.8157 45.44 88.9091 45.44C88.8024 45.44 88.6957 45.44 88.5891 45.44C88.5091 45.44 88.4157 45.44 88.3091 45.44C87.6957 46.8533 87.1757 48.3067 86.7491 49.8C86.3224 51.2933 86.1091 52.7467 86.1091 54.16C86.1091 55.3067 86.2824 56.1333 86.6291 56.64C86.9757 57.12 87.5491 57.36 88.3491 57.36C89.7357 57.36 91.0957 56.7467 92.4291 55.52C93.7624 54.2933 94.9357 52.6267 95.9491 50.52L96.4691 50.92C95.8291 52.4133 95.0157 53.76 94.0291 54.96C93.0691 56.16 92.0024 57.1067 90.8291 57.8C89.6557 58.4933 88.4424 58.84 87.1891 58.84ZM97.9153 58.28C96.902 58.28 96.1153 57.9467 95.5553 57.28C94.9953 56.64 94.7153 55.8133 94.7153 54.8C94.7153 53.9467 94.8886 53 95.2353 51.96C95.6086 50.8933 96.1153 49.84 96.7553 48.8C97.3953 47.7333 98.1153 46.76 98.9153 45.88C99.742 45 100.622 44.2933 101.555 43.76C102.489 43.2 103.435 42.92 104.395 42.92C104.902 42.92 105.289 43 105.555 43.16C105.822 43.32 106.009 43.52 106.115 43.76C106.169 43.7333 106.209 43.72 106.235 43.72C106.289 43.72 106.342 43.72 106.395 43.72C106.902 43.72 107.249 43.92 107.435 44.32C107.649 44.72 107.755 45.04 107.755 45.28C107.755 45.6 107.622 46.0267 107.355 46.56C107.089 47.0667 106.822 47.64 106.555 48.28C106.315 48.92 106.195 49.6 106.195 50.32C106.195 51.0667 106.382 51.6267 106.755 52C107.129 52.3467 107.729 52.52 108.555 52.52C109.089 52.52 109.649 52.2667 110.235 51.76C110.849 51.2267 111.449 50.56 112.035 49.76C112.622 48.9333 113.142 48.04 113.595 47.08C114.075 46.12 114.435 45.2 114.675 44.32C114.409 44.0533 114.275 43.7333 114.275 43.36C114.275 42.8267 114.382 42.36 114.595 41.96C114.809 41.5333 115.049 41.2133 115.315 41C115.609 40.76 115.822 40.64 115.955 40.64C116.249 40.64 116.409 40.7733 116.435 41.04C116.489 41.28 116.515 41.4667 116.515 41.6C116.515 41.7333 116.435 42 116.275 42.4C116.142 42.7733 116.075 43 116.075 43.08C116.075 43.4533 116.275 43.8 116.675 44.12C117.102 44.4133 117.582 44.76 118.115 45.16C118.649 45.5333 119.115 46 119.515 46.56C119.942 47.0933 120.155 47.7867 120.155 48.64C120.155 49.44 119.982 50.2533 119.635 51.08C119.315 51.9067 118.982 52.6933 118.635 53.44C118.315 54.1867 118.155 54.84 118.155 55.4C118.155 55.88 118.275 56.2 118.515 56.36C118.755 56.52 119.035 56.6 119.355 56.6C119.995 56.6 120.649 56.4 121.315 56C122.009 55.6 122.675 55.0933 123.315 54.48C123.955 53.8667 124.529 53.2267 125.035 52.56C125.542 51.8667 125.915 51.2267 126.155 50.64L126.675 51.04C126.169 52.16 125.475 53.2667 124.595 54.36C123.715 55.4267 122.729 56.3067 121.635 57C120.569 57.6933 119.462 58.04 118.315 58.04C117.409 58.04 116.689 57.8 116.155 57.32C115.649 56.84 115.395 56.2133 115.395 55.44C115.395 54.64 115.582 53.8 115.955 52.92C116.329 52.04 116.689 51.1733 117.035 50.32C117.409 49.44 117.595 48.6533 117.595 47.96C117.595 47.1067 117.342 46.48 116.835 46.08C116.355 45.6533 115.862 45.2667 115.355 44.92C115.062 45.8267 114.662 46.7867 114.155 47.8C113.675 48.7867 113.129 49.72 112.515 50.6C111.902 51.4533 111.235 52.1467 110.515 52.68C109.822 53.2133 109.089 53.48 108.315 53.48C107.569 53.48 106.889 53.3333 106.275 53.04C105.689 52.72 105.235 52.2533 104.915 51.64C104.089 53.5867 103.062 55.1867 101.835 56.44C100.635 57.6667 99.3286 58.28 97.9153 58.28ZM98.7953 56.56C99.4086 56.56 100.062 56.2933 100.755 55.76C101.449 55.2 102.129 54.4533 102.795 53.52C103.462 52.5867 104.035 51.5467 104.515 50.4C104.355 49.76 104.275 49 104.275 48.12C104.275 47.5067 104.302 46.9733 104.355 46.52C104.435 46.0667 104.529 45.6667 104.635 45.32C104.769 44.9733 104.902 44.6933 105.035 44.48C104.129 44.48 103.275 44.7333 102.475 45.24C101.702 45.72 100.995 46.36 100.355 47.16C99.7153 47.9333 99.1686 48.7733 98.7153 49.68C98.262 50.5867 97.902 51.4667 97.6353 52.32C97.3953 53.1733 97.2753 53.9067 97.2753 54.52C97.2753 55.1333 97.4086 55.6267 97.6753 56C97.942 56.3733 98.3153 56.56 98.7953 56.56ZM129.633 58.76C128.006 58.76 126.779 58.3067 125.953 57.4C125.152 56.52 124.752 55.4267 124.752 54.12C124.752 52.92 125.046 51.6533 125.633 50.32C126.246 48.9867 127.046 47.7333 128.033 46.56C129.046 45.3867 130.153 44.44 131.353 43.72C132.553 42.9733 133.739 42.6 134.913 42.6C135.526 42.6 136.086 42.76 136.593 43.08C137.126 43.4 137.393 44.0533 137.393 45.04C137.393 46.0533 137.086 47.0133 136.473 47.92C135.886 48.8 135.099 49.5867 134.113 50.28C133.153 50.9733 132.086 51.5467 130.913 52C129.766 52.4267 128.619 52.6933 127.473 52.8C127.419 53.0667 127.379 53.32 127.353 53.56C127.326 53.8 127.313 54.0267 127.313 54.24C127.313 54.64 127.353 55.04 127.433 55.44C127.539 55.84 127.713 56.2133 127.952 56.56C128.193 56.88 128.513 57.1333 128.913 57.32C129.339 57.5067 129.859 57.6 130.473 57.6C131.619 57.6 132.753 57.28 133.873 56.64C134.993 55.9733 136.033 55.1067 136.993 54.04C137.953 52.9733 138.766 51.8 139.433 50.52L139.913 50.88C139.193 52.48 138.273 53.8667 137.153 55.04C136.059 56.2133 134.859 57.12 133.553 57.76C132.273 58.4267 130.966 58.76 129.633 58.76ZM127.673 52.04C128.393 51.8 129.206 51.4533 130.113 51C131.019 50.52 131.886 49.96 132.713 49.32C133.566 48.68 134.259 47.9733 134.793 47.2C135.353 46.4267 135.633 45.6133 135.633 44.76C135.633 44.4667 135.579 44.24 135.473 44.08C135.366 43.92 135.139 43.84 134.793 43.84C134.153 43.84 133.473 44.0933 132.753 44.6C132.033 45.08 131.339 45.72 130.673 46.52C130.006 47.32 129.406 48.2 128.873 49.16C128.339 50.12 127.939 51.08 127.673 52.04Z" fill="black"/>
</svg>
