<svg width="84" height="38" viewBox="0 0 84 38" fill="none" xmlns="http://www.w3.org/2000/svg">
<path d="M5.256 20.088C4.12 20.088 3.2 19.8 2.496 19.224C1.808 18.664 1.304 17.936 0.984 17.04C0.68 16.144 0.528 15.208 0.528 14.232C0.528 12.968 0.72 11.696 1.104 10.416C1.488 9.136 2.008 7.92 2.664 6.768C3.336 5.6 4.096 4.568 4.944 3.672C5.792 2.76 6.68 2.048 7.608 1.536C8.552 1.008 9.48 0.743999 10.392 0.743999C11.048 0.743999 11.576 0.903999 11.976 1.224C12.392 1.528 12.6 2.056 12.6 2.808C12.6 3.272 12.52 3.8 12.36 4.392C12.2 4.968 11.984 5.528 11.712 6.072C11.44 6.6 11.136 7.04 10.8 7.392C10.48 7.744 10.152 7.92 9.816 7.92C9.688 7.92 9.552 7.88 9.408 7.8C9.28 7.72 9.168 7.576 9.072 7.368C9.312 7.096 9.576 6.76 9.864 6.36C10.168 5.944 10.456 5.512 10.728 5.064C11 4.6 11.216 4.152 11.376 3.72C11.552 3.272 11.64 2.88 11.64 2.544C11.64 2.224 11.544 1.968 11.352 1.776C11.176 1.568 10.88 1.464 10.464 1.464C9.776 1.464 9.056 1.744 8.304 2.304C7.568 2.864 6.848 3.616 6.144 4.56C5.456 5.488 4.832 6.528 4.272 7.68C3.712 8.832 3.264 10.008 2.928 11.208C2.608 12.408 2.448 13.552 2.448 14.64C2.448 15.424 2.56 16.176 2.784 16.896C3.008 17.6 3.368 18.168 3.864 18.6C4.376 19.048 5.032 19.272 5.832 19.272C6.68 19.272 7.52 19.032 8.352 18.552C9.2 18.072 9.976 17.44 10.68 16.656C11.384 15.872 11.944 15.024 12.36 14.112L12.696 14.352C12.168 15.392 11.528 16.352 10.776 17.232C10.024 18.096 9.184 18.784 8.256 19.296C7.328 19.824 6.328 20.088 5.256 20.088ZM13.8514 18.72C13.1634 18.72 12.6674 18.48 12.3634 18C12.0754 17.536 11.9314 16.952 11.9314 16.248C11.9314 15.48 12.0754 14.568 12.3634 13.512C12.6514 12.456 13.0274 11.344 13.4914 10.176C13.9714 9.008 14.4914 7.872 15.0514 6.768C15.6114 5.648 16.1714 4.632 16.7314 3.72C17.2914 2.808 17.8034 2.08 18.2674 1.536C18.7474 0.991999 19.1234 0.719999 19.3954 0.719999C19.5714 0.719999 19.7154 0.823999 19.8274 1.032C19.9394 1.224 20.0274 1.464 20.0914 1.752C20.1554 2.024 20.1874 2.272 20.1874 2.496C20.1874 2.928 20.0754 3.496 19.8514 4.2C19.6434 4.888 19.3394 5.664 18.9394 6.528C18.5554 7.376 18.0914 8.24 17.5474 9.12C17.0194 9.984 16.4354 10.816 15.7954 11.616C15.1714 12.416 14.5074 13.104 13.8034 13.68C13.7074 14.112 13.6274 14.536 13.5634 14.952C13.5154 15.352 13.4914 15.736 13.4914 16.104C13.4914 16.728 13.5794 17.192 13.7554 17.496C13.9314 17.8 14.1954 17.952 14.5474 17.952C14.9794 17.952 15.4034 17.76 15.8194 17.376C16.2514 16.992 16.6514 16.512 17.0194 15.936C17.4034 15.344 17.7314 14.736 18.0034 14.112L18.3634 14.304C17.7234 15.664 17.0274 16.744 16.2754 17.544C15.5234 18.328 14.7154 18.72 13.8514 18.72ZM14.0194 12.864C14.5794 12.304 15.1234 11.664 15.6514 10.944C16.1794 10.208 16.6674 9.448 17.1154 8.664C17.5794 7.88 17.9874 7.12 18.3394 6.384C18.6914 5.648 18.9634 4.992 19.1554 4.416C19.3474 3.824 19.4434 3.368 19.4434 3.048C19.4434 2.888 19.4194 2.784 19.3714 2.736C19.3394 2.688 19.3074 2.664 19.2754 2.664C19.1474 2.664 18.9234 2.872 18.6034 3.288C18.2994 3.688 17.9394 4.232 17.5234 4.92C17.1074 5.608 16.6834 6.392 16.2514 7.272C15.8194 8.152 15.4034 9.072 15.0034 10.032C14.6194 10.992 14.2914 11.936 14.0194 12.864ZM19.1873 18.768C18.4993 18.768 18.0113 18.552 17.7233 18.12C17.4352 17.704 17.2912 17.192 17.2912 16.584C17.2912 16.088 17.3712 15.576 17.5312 15.048C17.6913 14.52 17.8993 14.024 18.1553 13.56C18.4273 13.096 18.7233 12.72 19.0433 12.432C19.3793 12.144 19.7153 12 20.0513 12C20.1313 12 20.2113 12.016 20.2913 12.048C20.3873 12.064 20.4753 12.088 20.5553 12.12C20.4113 12.248 20.2353 12.488 20.0273 12.84C19.8353 13.176 19.6513 13.568 19.4753 14.016C19.2993 14.448 19.1473 14.88 19.0193 15.312C18.9073 15.744 18.8513 16.112 18.8513 16.416C18.8513 16.896 18.9313 17.248 19.0913 17.472C19.2513 17.68 19.4593 17.784 19.7153 17.784C20.0513 17.784 20.4513 17.608 20.9153 17.256C21.3793 16.888 21.8353 16.424 22.2833 15.864C21.8353 15.496 21.4833 15.016 21.2273 14.424C20.9873 13.816 20.8673 13.2 20.8673 12.576C20.8673 12.048 20.9553 11.552 21.1313 11.088C21.3233 10.624 21.5953 10.256 21.9473 9.984C22.2993 9.696 22.7233 9.552 23.2193 9.552C23.8753 9.552 24.3153 9.728 24.5393 10.08C24.7633 10.432 24.8753 10.872 24.8753 11.4C24.8753 12.024 24.7233 12.72 24.4193 13.488C24.1153 14.24 23.7313 14.968 23.2673 15.672C23.5553 15.832 23.8593 15.912 24.1793 15.912C24.4353 15.912 24.7233 15.864 25.0433 15.768C25.3633 15.656 25.6753 15.472 25.9793 15.216C26.2993 14.96 26.5553 14.616 26.7473 14.184L27.0353 14.424C26.7153 15.176 26.2593 15.712 25.6673 16.032C25.0913 16.336 24.5393 16.488 24.0113 16.488C23.8033 16.488 23.6033 16.472 23.4113 16.44C23.2193 16.392 23.0353 16.328 22.8593 16.248C22.3153 16.968 21.7153 17.568 21.0592 18.048C20.4193 18.528 19.7953 18.768 19.1873 18.768ZM22.7153 15.24C23.1153 14.648 23.4433 14.032 23.6992 13.392C23.9713 12.736 24.1073 12.12 24.1073 11.544C24.1073 11.08 24.0353 10.744 23.8913 10.536C23.7633 10.312 23.5953 10.2 23.3873 10.2C23.0673 10.2 22.7393 10.432 22.4033 10.896C22.0673 11.36 21.8993 11.944 21.8993 12.648C21.8993 13.112 21.9633 13.584 22.0913 14.064C22.2353 14.528 22.4433 14.92 22.7153 15.24ZM28.8169 19.224C28.0649 19.224 27.4649 19.056 27.0169 18.72C26.5849 18.4 26.2809 18 26.1049 17.52C25.9129 17.04 25.8169 16.56 25.8169 16.08C25.8169 15.6 25.8809 15.232 26.0089 14.976C26.1369 14.72 26.2889 14.528 26.4649 14.4C26.6569 14.272 26.8329 14.176 26.9929 14.112C27.1689 14.048 27.2889 13.984 27.3529 13.92C27.8329 13.392 28.2729 12.84 28.6729 12.264C29.0729 11.688 29.4249 11.08 29.7289 10.44V10.152C29.7289 9.56 29.8249 9.144 30.0169 8.904C30.2249 8.648 30.4409 8.52 30.6649 8.52C30.7929 8.52 30.8889 8.552 30.9529 8.616C31.0169 8.68 31.0489 8.752 31.0489 8.832C31.0489 8.912 31.0249 9.04 30.9769 9.216C30.9289 9.392 30.9049 9.616 30.9049 9.888C30.9049 10.416 31.0089 10.992 31.2169 11.616C31.4249 12.224 31.6329 12.872 31.8409 13.56C32.0489 14.232 32.1529 14.936 32.1529 15.672C32.1529 15.88 32.1369 16.088 32.1049 16.296C32.0889 16.488 32.0569 16.672 32.0089 16.848C32.5689 16.752 33.0969 16.504 33.5929 16.104C34.0889 15.688 34.5689 15.032 35.0329 14.136L35.2489 14.376C34.9449 15.256 34.4889 15.928 33.8809 16.392C33.2729 16.84 32.6089 17.12 31.8889 17.232C31.6329 17.92 31.2249 18.424 30.6649 18.744C30.1209 19.064 29.5049 19.224 28.8169 19.224ZM28.8649 18.384C29.0569 18.384 29.3129 18.32 29.6329 18.192C29.9529 18.064 30.2009 17.736 30.3769 17.208C29.7049 17.08 29.1049 16.816 28.5769 16.416C28.0649 16.016 27.6809 15.616 27.4249 15.216C27.0729 15.232 26.8969 15.512 26.8969 16.056C26.8969 16.632 27.0649 17.168 27.4009 17.664C27.7529 18.144 28.2409 18.384 28.8649 18.384ZM30.4969 16.824C30.5289 16.664 30.5529 16.496 30.5689 16.32C30.5849 16.144 30.5929 15.936 30.5929 15.696C30.5929 14.944 30.4969 14.2 30.3049 13.464C30.1289 12.712 29.9769 12.008 29.8489 11.352C29.4809 11.96 29.0889 12.544 28.6729 13.104C28.2729 13.648 27.8889 14.104 27.5209 14.472C27.7609 14.984 28.1289 15.464 28.6249 15.912C29.1369 16.36 29.7609 16.664 30.4969 16.824ZM37.1623 19.056C36.1863 19.056 35.4503 18.784 34.9543 18.24C34.4743 17.712 34.2343 17.056 34.2343 16.272C34.2343 15.552 34.4103 14.792 34.7623 13.992C35.1303 13.192 35.6103 12.44 36.2023 11.736C36.8103 11.032 37.4743 10.464 38.1943 10.032C38.9143 9.584 39.6263 9.36 40.3303 9.36C40.6983 9.36 41.0343 9.456 41.3383 9.648C41.6583 9.84 41.8183 10.232 41.8183 10.824C41.8183 11.432 41.6343 12.008 41.2663 12.552C40.9143 13.08 40.4423 13.552 39.8503 13.968C39.2743 14.384 38.6343 14.728 37.9303 15C37.2423 15.256 36.5543 15.416 35.8663 15.48C35.8343 15.64 35.8103 15.792 35.7943 15.936C35.7783 16.08 35.7703 16.216 35.7703 16.344C35.7703 16.584 35.7943 16.824 35.8423 17.064C35.9063 17.304 36.0103 17.528 36.1543 17.736C36.2983 17.928 36.4903 18.08 36.7303 18.192C36.9863 18.304 37.2983 18.36 37.6663 18.36C38.3543 18.36 39.0343 18.168 39.7063 17.784C40.3783 17.384 41.0023 16.864 41.5783 16.224C42.1543 15.584 42.6423 14.88 43.0423 14.112L43.3303 14.328C42.8983 15.288 42.3463 16.12 41.6743 16.824C41.0183 17.528 40.2983 18.072 39.5143 18.456C38.7463 18.856 37.9623 19.056 37.1623 19.056ZM35.9863 15.024C36.4183 14.88 36.9063 14.672 37.4503 14.4C37.9943 14.112 38.5143 13.776 39.0103 13.392C39.5223 13.008 39.9383 12.584 40.2583 12.12C40.5943 11.656 40.7623 11.168 40.7623 10.656C40.7623 10.48 40.7303 10.344 40.6663 10.248C40.6023 10.152 40.4663 10.104 40.2583 10.104C39.8743 10.104 39.4663 10.256 39.0343 10.56C38.6023 10.848 38.1863 11.232 37.7863 11.712C37.3863 12.192 37.0263 12.72 36.7063 13.296C36.3863 13.872 36.1463 14.448 35.9863 15.024ZM44.6025 19.104C43.9145 19.104 43.3865 18.904 43.0185 18.504C42.6505 18.104 42.4665 17.512 42.4665 16.728C42.4665 16.024 42.5945 15.16 42.8505 14.136C43.1225 13.096 43.4585 12.032 43.8585 10.944C43.6985 10.912 43.5465 10.888 43.4025 10.872C43.2585 10.84 43.1225 10.8 42.9945 10.752V10.32C43.1225 10.336 43.2745 10.352 43.4505 10.368C43.6265 10.384 43.8265 10.4 44.0505 10.416C44.3865 9.552 44.7465 8.72 45.1305 7.92C45.5145 7.104 45.8905 6.384 46.2585 5.76C46.6425 5.12 47.0025 4.616 47.3385 4.248C47.6905 3.864 47.9865 3.672 48.2265 3.672C48.3545 3.672 48.4665 3.72 48.5625 3.816C48.6745 3.896 48.7305 4.024 48.7305 4.2C48.7305 4.472 48.5625 4.92 48.2265 5.544C47.8905 6.152 47.4745 6.88 46.9785 7.728C46.4825 8.576 46.0025 9.496 45.5385 10.488C45.6825 10.488 45.8265 10.488 45.9705 10.488C46.1305 10.488 46.2825 10.488 46.4265 10.488C46.9545 10.488 47.5065 10.48 48.0825 10.464C48.6745 10.448 49.2665 10.408 49.8585 10.344V10.776C48.9785 10.872 48.1865 10.944 47.4825 10.992C46.7945 11.04 46.1785 11.064 45.6345 11.064C45.5705 11.064 45.5065 11.064 45.4425 11.064C45.3945 11.064 45.3385 11.064 45.2745 11.064C44.9065 11.912 44.5945 12.784 44.3385 13.68C44.0825 14.576 43.9545 15.448 43.9545 16.296C43.9545 16.984 44.0585 17.48 44.2665 17.784C44.4745 18.072 44.8185 18.216 45.2985 18.216C46.1305 18.216 46.9465 17.848 47.7465 17.112C48.5465 16.376 49.2505 15.376 49.8585 14.112L50.1705 14.352C49.7865 15.248 49.2985 16.056 48.7065 16.776C48.1305 17.496 47.4905 18.064 46.7865 18.48C46.0825 18.896 45.3545 19.104 44.6025 19.104ZM42.2783 37.088C41.4143 37.088 40.5983 36.928 39.8303 36.608C39.0623 36.304 38.4383 35.832 37.9583 35.192C37.4943 34.552 37.2622 33.752 37.2622 32.792C37.2622 31.96 37.4223 31.312 37.7423 30.848C38.0783 30.384 38.4863 30.056 38.9663 29.864C39.4463 29.672 39.9023 29.576 40.3343 29.576C39.9023 30.04 39.5743 30.552 39.3503 31.112C39.1263 31.672 39.0143 32.232 39.0143 32.792C39.0143 33.384 39.1423 33.936 39.3983 34.448C39.6703 34.96 40.0783 35.368 40.6223 35.672C41.1663 35.992 41.8543 36.152 42.6863 36.152C43.4063 36.152 44.1103 36.016 44.7983 35.744C45.4863 35.488 46.0463 35.104 46.4783 34.592C46.9263 34.064 47.1503 33.416 47.1503 32.648C47.1503 31.96 46.9743 31.368 46.6223 30.872C46.2703 30.376 45.8143 29.936 45.2543 29.552C44.7103 29.168 44.1263 28.8 43.5023 28.448C42.8783 28.096 42.2863 27.728 41.7263 27.344C41.1823 26.944 40.7343 26.488 40.3823 25.976C40.0303 25.464 39.8543 24.848 39.8543 24.128C39.8543 23.456 40.0143 22.752 40.3343 22.016C40.6543 21.28 41.1103 20.584 41.7023 19.928C42.3103 19.272 43.0303 18.744 43.8623 18.344C44.7103 17.928 45.6543 17.72 46.6943 17.72C47.6383 17.72 48.2943 17.952 48.6623 18.416C49.0303 18.864 49.2143 19.432 49.2143 20.12C49.2143 20.696 49.1103 21.32 48.9023 21.992C48.7103 22.648 48.4703 23.28 48.1823 23.888C47.8943 24.48 47.6223 24.984 47.3663 25.4C47.0783 25.336 46.8703 25.216 46.7423 25.04C46.6303 24.848 46.5743 24.624 46.5743 24.368C46.5743 24.032 46.6463 23.648 46.7903 23.216C46.9343 22.784 47.0943 22.336 47.2703 21.872C47.4623 21.408 47.6303 20.96 47.7743 20.528C47.9183 20.08 47.9903 19.68 47.9903 19.328C47.9903 19.008 47.8943 18.76 47.7023 18.584C47.5103 18.392 47.1583 18.296 46.6463 18.296C45.8943 18.296 45.1983 18.472 44.5583 18.824C43.9183 19.176 43.3583 19.632 42.8783 20.192C42.3983 20.736 42.0223 21.312 41.7503 21.92C41.4943 22.528 41.3663 23.08 41.3663 23.576C41.3663 24.168 41.5343 24.68 41.8703 25.112C42.2223 25.528 42.6703 25.912 43.2143 26.264C43.7583 26.6 44.3343 26.944 44.9423 27.296C45.5663 27.632 46.1503 28.008 46.6943 28.424C47.2383 28.84 47.6783 29.336 48.0143 29.912C48.3663 30.472 48.5423 31.16 48.5423 31.976C48.5423 32.808 48.3583 33.544 47.9903 34.184C47.6223 34.808 47.1263 35.336 46.5023 35.768C45.8943 36.2 45.2223 36.528 44.4863 36.752C43.7503 36.976 43.0143 37.088 42.2783 37.088ZM52.3134 36.104C51.6254 36.104 51.0974 35.904 50.7294 35.504C50.3614 35.104 50.1774 34.512 50.1774 33.728C50.1774 33.024 50.3054 32.16 50.5614 31.136C50.8334 30.096 51.1694 29.032 51.5694 27.944C51.4094 27.912 51.2574 27.888 51.1134 27.872C50.9694 27.84 50.8334 27.8 50.7054 27.752V27.32C50.8334 27.336 50.9854 27.352 51.1614 27.368C51.3374 27.384 51.5374 27.4 51.7614 27.416C52.0974 26.552 52.4574 25.72 52.8414 24.92C53.2254 24.104 53.6014 23.384 53.9694 22.76C54.3534 22.12 54.7134 21.616 55.0494 21.248C55.4014 20.864 55.6974 20.672 55.9374 20.672C56.0654 20.672 56.1774 20.72 56.2734 20.816C56.3854 20.896 56.4414 21.024 56.4414 21.2C56.4414 21.472 56.2734 21.92 55.9374 22.544C55.6014 23.152 55.1854 23.88 54.6894 24.728C54.1934 25.576 53.7134 26.496 53.2494 27.488C53.3934 27.488 53.5374 27.488 53.6814 27.488C53.8414 27.488 53.9934 27.488 54.1374 27.488C54.6654 27.488 55.2174 27.48 55.7934 27.464C56.3854 27.448 56.9774 27.408 57.5694 27.344V27.776C56.6894 27.872 55.8974 27.944 55.1934 27.992C54.5054 28.04 53.8894 28.064 53.3454 28.064C53.2814 28.064 53.2174 28.064 53.1534 28.064C53.1054 28.064 53.0494 28.064 52.9854 28.064C52.6174 28.912 52.3054 29.784 52.0494 30.68C51.7934 31.576 51.6654 32.448 51.6654 33.296C51.6654 33.984 51.7694 34.48 51.9774 34.784C52.1854 35.072 52.5294 35.216 53.0094 35.216C53.8414 35.216 54.6574 34.848 55.4574 34.112C56.2574 33.376 56.9614 32.376 57.5694 31.112L57.8814 31.352C57.4974 32.248 57.0094 33.056 56.4174 33.776C55.8414 34.496 55.2014 35.064 54.4974 35.48C53.7934 35.896 53.0654 36.104 52.3134 36.104ZM58.7492 35.768C58.1412 35.768 57.6692 35.568 57.3332 35.168C56.9972 34.784 56.8292 34.288 56.8292 33.68C56.8292 33.168 56.9332 32.6 57.1412 31.976C57.3652 31.336 57.6692 30.704 58.0532 30.08C58.4372 29.44 58.8692 28.856 59.3492 28.328C59.8452 27.8 60.3732 27.376 60.9332 27.056C61.4932 26.72 62.0612 26.552 62.6372 26.552C62.9412 26.552 63.1732 26.6 63.3332 26.696C63.4932 26.792 63.6052 26.912 63.6692 27.056C63.7012 27.04 63.7252 27.032 63.7412 27.032C63.7732 27.032 63.8052 27.032 63.8372 27.032C64.1412 27.032 64.3492 27.152 64.4612 27.392C64.5892 27.632 64.6532 27.824 64.6532 27.968C64.6532 28.16 64.5732 28.416 64.4132 28.736C64.2532 29.04 64.0932 29.384 63.9332 29.768C63.7892 30.152 63.7172 30.56 63.7172 30.992C63.7172 31.44 63.8292 31.776 64.0532 32C64.2772 32.208 64.6372 32.312 65.1332 32.312C65.4532 32.312 65.7892 32.16 66.1412 31.856C66.5092 31.536 66.8692 31.136 67.2212 30.656C67.5732 30.16 67.8852 29.624 68.1572 29.048C68.4452 28.472 68.6612 27.92 68.8052 27.392C68.6452 27.232 68.5652 27.04 68.5652 26.816C68.5652 26.496 68.6292 26.216 68.7572 25.976C68.8852 25.72 69.0292 25.528 69.1892 25.4C69.3652 25.256 69.4932 25.184 69.5732 25.184C69.7492 25.184 69.8452 25.264 69.8612 25.424C69.8932 25.568 69.9092 25.68 69.9092 25.76C69.9092 25.84 69.8612 26 69.7652 26.24C69.6852 26.464 69.6452 26.6 69.6452 26.648C69.6452 26.872 69.7652 27.08 70.0052 27.272C70.2612 27.448 70.5492 27.656 70.8692 27.896C71.1892 28.12 71.4692 28.4 71.7092 28.736C71.9652 29.056 72.0932 29.472 72.0932 29.984C72.0932 30.464 71.9892 30.952 71.7812 31.448C71.5892 31.944 71.3892 32.416 71.1812 32.864C70.9892 33.312 70.8932 33.704 70.8932 34.04C70.8932 34.328 70.9652 34.52 71.1092 34.616C71.2532 34.712 71.4212 34.76 71.6132 34.76C71.9972 34.76 72.3892 34.64 72.7892 34.4C73.2052 34.16 73.6052 33.856 73.9892 33.488C74.3732 33.12 74.7172 32.736 75.0212 32.336C75.3252 31.92 75.5492 31.536 75.6932 31.184L76.0052 31.424C75.7012 32.096 75.2852 32.76 74.7572 33.416C74.2292 34.056 73.6372 34.584 72.9812 35C72.3412 35.416 71.6772 35.624 70.9892 35.624C70.4452 35.624 70.0132 35.48 69.6932 35.192C69.3892 34.904 69.2372 34.528 69.2372 34.064C69.2372 33.584 69.3492 33.08 69.5732 32.552C69.7972 32.024 70.0132 31.504 70.2212 30.992C70.4452 30.464 70.5572 29.992 70.5572 29.576C70.5572 29.064 70.4052 28.688 70.1012 28.448C69.8132 28.192 69.5172 27.96 69.2132 27.752C69.0372 28.296 68.7972 28.872 68.4932 29.48C68.2052 30.072 67.8772 30.632 67.5092 31.16C67.1412 31.672 66.7412 32.088 66.3092 32.408C65.8932 32.728 65.4532 32.888 64.9892 32.888C64.5412 32.888 64.1332 32.8 63.7652 32.624C63.4132 32.432 63.1412 32.152 62.9492 31.784C62.4532 32.952 61.8372 33.912 61.1012 34.664C60.3812 35.4 59.5972 35.768 58.7492 35.768ZM59.2772 34.736C59.6452 34.736 60.0372 34.576 60.4532 34.256C60.8692 33.92 61.2772 33.472 61.6772 32.912C62.0772 32.352 62.4212 31.728 62.7092 31.04C62.6132 30.656 62.5652 30.2 62.5652 29.672C62.5652 29.304 62.5812 28.984 62.6132 28.712C62.6612 28.44 62.7172 28.2 62.7812 27.992C62.8612 27.784 62.9412 27.616 63.0212 27.488C62.4772 27.488 61.9652 27.64 61.4852 27.944C61.0212 28.232 60.5972 28.616 60.2132 29.096C59.8292 29.56 59.5012 30.064 59.2292 30.608C58.9572 31.152 58.7412 31.68 58.5812 32.192C58.4372 32.704 58.3652 33.144 58.3652 33.512C58.3652 33.88 58.4452 34.176 58.6052 34.4C58.7652 34.624 58.9892 34.736 59.2772 34.736ZM77.7795 36.056C76.8035 36.056 76.0675 35.784 75.5715 35.24C75.0915 34.712 74.8515 34.056 74.8515 33.272C74.8515 32.552 75.0275 31.792 75.3795 30.992C75.7475 30.192 76.2275 29.44 76.8195 28.736C77.4275 28.032 78.0915 27.464 78.8115 27.032C79.5315 26.584 80.2435 26.36 80.9475 26.36C81.3155 26.36 81.6515 26.456 81.9555 26.648C82.2755 26.84 82.4355 27.232 82.4355 27.824C82.4355 28.432 82.2515 29.008 81.8835 29.552C81.5315 30.08 81.0595 30.552 80.4675 30.968C79.8915 31.384 79.2515 31.728 78.5475 32C77.8595 32.256 77.1715 32.416 76.4835 32.48C76.4515 32.64 76.4275 32.792 76.4115 32.936C76.3955 33.08 76.3875 33.216 76.3875 33.344C76.3875 33.584 76.4115 33.824 76.4595 34.064C76.5235 34.304 76.6275 34.528 76.7715 34.736C76.9155 34.928 77.1075 35.08 77.3475 35.192C77.6035 35.304 77.9155 35.36 78.2835 35.36C78.9715 35.36 79.6515 35.168 80.3235 34.784C80.9955 34.384 81.6195 33.864 82.1955 33.224C82.7715 32.584 83.2595 31.88 83.6595 31.112L83.9475 31.328C83.5155 32.288 82.9635 33.12 82.2915 33.824C81.6355 34.528 80.9155 35.072 80.1315 35.456C79.3635 35.856 78.5795 36.056 77.7795 36.056ZM76.6035 32.024C77.0355 31.88 77.5235 31.672 78.0675 31.4C78.6115 31.112 79.1315 30.776 79.6275 30.392C80.1395 30.008 80.5555 29.584 80.8755 29.12C81.2115 28.656 81.3795 28.168 81.3795 27.656C81.3795 27.48 81.3475 27.344 81.2835 27.248C81.2195 27.152 81.0835 27.104 80.8755 27.104C80.4915 27.104 80.0835 27.256 79.6515 27.56C79.2195 27.848 78.8035 28.232 78.4035 28.712C78.0035 29.192 77.6435 29.72 77.3235 30.296C77.0035 30.872 76.7635 31.448 76.6035 32.024Z" fill="black"/>
</svg>
